<?xml version="1.0" standalone="no"?><!DOCTYPE svg PUBLIC "-//W3C//DTD SVG 1.1//EN" "http://www.w3.org/Graphics/SVG/1.1/DTD/svg11.dtd"><svg t="1712413477559" class="icon" viewBox="0 0 1024 1024" version="1.1" xmlns="http://www.w3.org/2000/svg" p-id="4227" xmlns:xlink="http://www.w3.org/1999/xlink" width="200" height="200"><path d="M512 1024A512 512 0 1 1 512 0a512 512 0 0 1 0 1024z m259.2-568.896H480.32a25.28 25.28 0 0 0-25.28 25.28v63.232c0 13.952 11.328 25.28 25.28 25.28h177.024c13.952 0 25.28 11.328 25.28 25.28v12.672c0 41.856-33.92 75.84-75.84 75.84H366.592a25.28 25.28 0 0 1-25.28-25.28V417.216c0-41.92 33.92-75.84 75.84-75.84h353.92a25.28 25.28 0 0 0 25.28-25.344l0.064-63.168a25.28 25.28 0 0 0-25.216-25.28H417.152a189.632 189.632 0 0 0-189.632 189.632v353.92c0 14.016 11.328 25.28 25.28 25.28h372.992a170.624 170.624 0 0 0 170.624-170.624V480.384a25.28 25.28 0 0 0-25.28-25.28z" fill="#C71D23" p-id="4228"></path></svg>